<?xml version="1.0" encoding="UTF-8" standalone="no"?>
<!-- Created with Inkscape (http://www.inkscape.org/) -->

<svg
   xmlns:dc="http://purl.org/dc/elements/1.1/"
   xmlns:cc="http://creativecommons.org/ns#"
   xmlns:rdf="http://www.w3.org/1999/02/22-rdf-syntax-ns#"
   xmlns:svg="http://www.w3.org/2000/svg"
   xmlns="http://www.w3.org/2000/svg"
   xmlns:sodipodi="http://sodipodi.sourceforge.net/DTD/sodipodi-0.dtd"
   xmlns:inkscape="http://www.inkscape.org/namespaces/inkscape"
   width="300"
   height="100"
   viewBox="0 0 79.374998 26.458334"
   version="1.1"
   id="svg8"
   inkscape:version="0.92.4 (5da689c313, 2019-01-14)"
   sodipodi:docname="keydisplay_on.svg">
  <defs
     id="defs2" />
  <sodipodi:namedview
     id="base"
     pagecolor="#ffffff"
     bordercolor="#666666"
     borderopacity="1.0"
     inkscape:pageopacity="0.0"
     inkscape:pageshadow="2"
     inkscape:zoom="2.136442"
     inkscape:cx="142.98216"
     inkscape:cy="6.9789687"
     inkscape:document-units="mm"
     inkscape:current-layer="g837"
     showgrid="false"
     units="px"
     inkscape:window-width="1322"
     inkscape:window-height="488"
     inkscape:window-x="565"
     inkscape:window-y="430"
     inkscape:window-maximized="0"
     showguides="false" />
  <metadata
     id="metadata5">
    <rdf:RDF>
      <cc:Work
         rdf:about="">
        <dc:format>image/svg+xml</dc:format>
        <dc:type
           rdf:resource="http://purl.org/dc/dcmitype/StillImage" />
        <dc:title />
      </cc:Work>
    </rdf:RDF>
  </metadata>
  <g
     inkscape:label="Layer 1"
     inkscape:groupmode="layer"
     id="layer1"
     transform="translate(0,-270.54165)">
    <rect
       style="fill:#5f5f5f;fill-opacity:0.89502764;fill-rule:nonzero;stroke:none;stroke-width:0.5785681;stroke-linecap:round;stroke-linejoin:round;stroke-miterlimit:7.30000019;stroke-dasharray:none;stroke-opacity:0.94117647;paint-order:markers fill stroke"
       id="rect815"
       width="79.375"
       height="26.458334"
       x="-5.5511151e-17"
       y="270.54166"
       ry="5.3370457"
       rx="5.3370457" />
    <g
       id="g837"
       transform="matrix(1.7573244,0,0,1.7573244,-19.009508,-225.2976)"
       style="fill:#ffffff;fill-opacity:1;opacity:1">
      <text
         id="text829"
         y="290.77582"
         x="27.394678"
         style="font-style:normal;font-variant:normal;font-weight:bold;font-stretch:normal;font-size:5.29166651px;line-height:1.25;font-family:sans-serif;-inkscape-font-specification:'sans-serif, Bold';font-variant-ligatures:normal;font-variant-caps:normal;font-variant-numeric:normal;font-feature-settings:normal;text-align:center;letter-spacing:0px;word-spacing:0px;writing-mode:lr-tb;direction:ltr;text-orientation:sideways;text-anchor:middle;fill:#ffffff;fill-opacity:1;stroke:none;stroke-width:0.26458332"
         xml:space="preserve"><tspan
           style="font-style:normal;font-variant:normal;font-weight:normal;font-stretch:normal;font-size:4.21568918px;line-height:0px;font-family:Arial;-inkscape-font-specification:'Arial, Normal';font-variant-ligatures:normal;font-variant-caps:normal;font-variant-numeric:normal;font-feature-settings:normal;text-align:center;writing-mode:lr-tb;direction:ltr;text-orientation:sideways;text-anchor:middle;fill:#ffffff;fill-opacity:1;stroke-width:0.26458332"
           y="290.77582"
           x="27.394678"
           sodipodi:role="line"
           id="tspan1400">KeyDisplay On</tspan></text>
      <path
         id="path818"
         d="m 46.831712,290.63257 h 3.2521 v 0.54202 h -3.2521 v -0.54202 m 0,-0.81302 v 0.54202 h -1.084036 v -0.54202 h 1.084036 m 0.271007,0.54202 v -0.54202 h 0.813025 v 0.54202 h -0.813025 m 1.084034,0 v -0.54202 h 0.542018 v 0.54202 h -0.542018 m 0.813026,0 v -0.54202 h 0.813026 v 0.54202 h -0.813026 m 1.084033,0 v -0.54202 h 1.084036 v 0.54202 h -1.084036 m -4.336136,-1.35505 h 0.813026 v 0.54202 h -0.813026 v -0.54202 m 4.607145,0.54202 v -0.54202 h 0.813027 v 0.54202 h -0.813027 m -0.271009,0 h -0.542016 v -0.54202 h 0.542016 v 0.54202 m -2.710084,0 h -0.542016 v -0.54202 h 0.542016 v 0.54202 m 1.084033,0 h -0.813024 v -0.54202 h 0.813024 v 0.54202 m 0.813026,0 h -0.542016 v -0.54202 h 0.542016 v 0.54202 m -3.523111,-0.81301 v -0.54202 h 0.542018 v 0.54202 h -0.542018 m 0.813026,0 v -0.54202 h 0.542017 v 0.54202 h -0.542017 m 0.813026,0 v -0.54202 h 0.542016 v 0.54202 h -0.542016 m 0.813025,0 v -0.54202 h 0.542018 v 0.54202 h -0.542018 m 0.813026,0 v -0.54202 h 0.542017 v 0.54202 h -0.542017 m 0.813026,0 v -0.54202 h 1.355043 v 0.54202 z"
         inkscape:connector-curvature="0"
         style="stroke-width:0.27100852" />
    </g>
    <rect
       style="fill:none;fill-opacity:1;fill-rule:nonzero;stroke:#ffffff;stroke-width:0.80086237;stroke-linecap:round;stroke-linejoin:round;stroke-miterlimit:7.30000019;stroke-dasharray:none;stroke-opacity:1;paint-order:markers fill stroke"
       id="rect826"
       width="13.166138"
       height="13.166586"
       x="59.563431"
       y="277.18796"
       rx="2.6242507"
       ry="2.6242507" />
  </g>
</svg>
